<svg width="16" height="16" viewBox="0 0 16 16" fill="none" xmlns="http://www.w3.org/2000/svg">
<path d="M1 15H15M1 15V11.407L8 4.22113M1 15L4.5 15L11.5 7.81408M8 4.22113L10.51 1.6444L10.5116 1.64287C10.8571 1.28817 11.0302 1.11051 11.2297 1.04396C11.4054 0.985346 11.5947 0.985346 11.7704 1.04396C11.9698 1.11046 12.1427 1.28792 12.4877 1.64212L14.01 3.20487C14.3565 3.56059 14.5299 3.73853 14.5948 3.94362C14.6519 4.12403 14.6519 4.31836 14.5948 4.49876C14.5299 4.70371 14.3568 4.88138 14.0108 5.23659L14.0101 5.23735L11.5 7.81408M8 4.22113L11.5 7.81408" stroke="black" stroke-opacity="0.3" stroke-width="2" stroke-linecap="round" stroke-linejoin="round"/>
</svg>
