<svg width="10" height="13" viewBox="0 0 10 13" fill="none" xmlns="http://www.w3.org/2000/svg">
<path d="M2.99997 12H6.9999M4.99993 1C2.79083 1 1 2.64162 1 4.66667C1 5.40886 1.24056 6.09955 1.6541 6.67679C2.29003 7.56445 2.60771 8.00799 2.64898 8.07428C3.01615 8.66396 2.94855 8.45598 2.99476 9.13363C2.99995 9.2098 2.99997 9.3251 2.99997 9.55556C2.99997 9.89306 3.29844 10.1667 3.66662 10.1667L6.33324 10.1667C6.70142 10.1667 6.9999 9.89306 6.9999 9.55556C6.9999 9.3251 6.9999 9.2098 7.00509 9.13363C7.0513 8.45598 6.98331 8.66396 7.35047 8.07428C7.39175 8.00799 7.70997 7.56445 8.3459 6.67679C8.75944 6.09955 9 5.40886 9 4.66667C9 2.64162 7.20903 1 4.99993 1Z" stroke="black" stroke-opacity="0.3" stroke-width="2" stroke-linecap="round" stroke-linejoin="round"/>
</svg>
