<svg width="12" height="13" viewBox="0 0 12 13" fill="none" xmlns="http://www.w3.org/2000/svg">
<path d="M4.65161 8.94444H1.2811V12M7.34802 4.05556H10.7185V1M1 4.66875C1.37796 3.82068 2.01077 3.08575 2.82651 2.54747C3.64225 2.0092 4.60904 1.68904 5.61541 1.62364C6.62177 1.55825 7.62759 1.75008 8.51968 2.17737C9.41176 2.60467 10.1531 3.25044 10.6606 4.04096M11 8.33154C10.622 9.17961 9.98923 9.91454 9.17349 10.4528C8.35775 10.9911 7.39194 11.3108 6.38558 11.3762C5.37921 11.4416 4.37257 11.2498 3.48049 10.8225C2.5884 10.3952 1.84655 9.74959 1.33903 8.95907" stroke="black" stroke-opacity="0.3" stroke-width="2" stroke-linecap="round" stroke-linejoin="round"/>
</svg>
