<svg width="13" height="14" viewBox="0 0 13 14" fill="none" xmlns="http://www.w3.org/2000/svg">
<path d="M1.26279 3.45104L1.03591 6.17345C1.00231 6.57664 0.985366 6.77993 1.01613 6.97291C1.04361 7.14533 1.0985 7.31125 1.17857 7.4629C1.26854 7.63328 1.40151 7.77833 1.66594 8.06678L5.21101 11.9339C5.75011 12.522 6.01981 12.8162 6.33162 12.9267C6.60676 13.0243 6.90363 13.0245 7.17877 12.927C7.49157 12.8161 7.76338 12.5199 8.3059 11.9281L11.0182 8.96935C11.5608 8.37754 11.8316 8.08176 11.9332 7.74055C12.0226 7.4404 12.0221 7.11693 11.9327 6.81679C11.831 6.47557 11.5606 6.17986 11.0181 5.58805L7.48179 1.73043C7.21495 1.43934 7.08148 1.29378 6.92458 1.1952C6.78556 1.10785 6.63346 1.04771 6.4754 1.01773C6.29701 0.983898 6.10901 1.0025 5.73319 1.03977L3.24687 1.28634C2.59973 1.35051 2.27596 1.38274 2.02275 1.53634C1.7995 1.67177 1.61545 1.87253 1.49131 2.11607C1.3512 2.39091 1.32198 2.74159 1.26374 3.4405L1.26279 3.45104Z" stroke="black" stroke-opacity="0.3" stroke-width="2" stroke-linecap="round" stroke-linejoin="round"/>
<path d="M4.66346 4.99623C4.93096 4.70442 4.93096 4.23132 4.66346 3.93952C4.39596 3.64771 3.96195 3.64771 3.69445 3.93952C3.42695 4.23132 3.4267 4.70431 3.69419 4.99611C3.96169 5.28791 4.39596 5.28803 4.66346 4.99623Z" stroke="black" stroke-opacity="0.3" stroke-width="2" stroke-linecap="round" stroke-linejoin="round"/>
</svg>
