<svg width="14" height="17" viewBox="0 0 14 17" fill="none" xmlns="http://www.w3.org/2000/svg">
<path d="M4.42857 12.6667H9.57143M4.42857 10.1667H9.57143M7.85747 1.00073C7.77558 1 7.68347 1 7.57833 1H3.74302C2.78293 1 2.30253 1 1.93583 1.18166C1.61326 1.34145 1.3512 1.59623 1.18685 1.90983C1 2.26635 1 2.73341 1 3.66683V13.3335C1 14.2669 1 14.7334 1.18685 15.0899C1.3512 15.4035 1.61326 15.6587 1.93583 15.8185C2.30218 16 2.782 16 3.74023 16L10.2598 16C11.218 16 11.6971 16 12.0635 15.8185C12.386 15.6587 12.649 15.4035 12.8133 15.0899C13 14.7337 13 14.2679 13 13.3363V6.2714C13 6.16918 12.9999 6.07961 12.9992 6M7.85747 1.00073C8.10214 1.0029 8.25633 1.01172 8.40415 1.04623C8.57907 1.08705 8.74673 1.15439 8.90011 1.24577C9.07306 1.34881 9.22155 1.49318 9.51786 1.78125L12.1968 4.38582C12.4933 4.67407 12.6407 4.8178 12.7468 4.98599C12.8408 5.13512 12.9103 5.29771 12.9523 5.46777C12.9878 5.61149 12.9969 5.76212 12.9992 6M7.85747 1.00073L7.85714 3.33351C7.85714 4.26693 7.85714 4.73346 8.04399 5.08998C8.20834 5.40358 8.4704 5.65873 8.79297 5.81852C9.15931 6 9.63915 6 10.5974 6H12.9992" stroke="black" stroke-opacity="0.3" stroke-width="2" stroke-linecap="round" stroke-linejoin="round"/>
</svg>
