<svg width="19" height="15" viewBox="0 0 19 15" fill="none" xmlns="http://www.w3.org/2000/svg">
<path d="M2.09818 9.02927L4.42402 11.8355C4.77558 12.2597 4.95224 12.4719 5.16801 12.6246C5.35919 12.7599 5.57286 12.8604 5.79887 12.9219C6.05395 12.9912 6.32858 12.992 6.8795 12.9934L14.1807 13.0129C15.3008 13.0159 15.8612 13.0174 16.2896 12.8006C16.6665 12.6098 16.973 12.3049 17.1658 11.9291C17.3849 11.5019 17.3864 10.9414 17.3894 9.8213L17.4044 4.22132C17.4074 3.10122 17.4089 2.54146 17.192 2.11306C17.0013 1.73622 16.6964 1.42913 16.3205 1.23638C15.8937 1.01747 15.3339 1.01597 14.216 1.01299L6.91156 0.993471C6.36064 0.991999 6.08601 0.991437 5.83056 1.05943C5.60423 1.11968 5.39002 1.21919 5.19812 1.35347C4.98154 1.50503 4.80375 1.71579 4.44993 2.13807L2.10912 4.93183C1.49986 5.65898 1.19589 6.02263 1.07876 6.42908C0.975498 6.78743 0.974481 7.16811 1.07583 7.527C1.19078 7.93407 1.49281 8.29887 2.09818 9.02927Z" stroke="black" stroke-opacity="0.2" stroke-width="2" stroke-linecap="round" stroke-linejoin="round"/>
</svg>
