<svg width="19" height="21" viewBox="0 0 19 21" fill="none" xmlns="http://www.w3.org/2000/svg">
<path d="M12.2231 17.7601C13.7803 18.7 14.5597 19.1699 15.2071 19.1145C15.7719 19.0663 16.2892 18.7804 16.6312 18.3284C17.0232 17.8104 17.0409 16.9017 17.0763 15.0844L17.265 5.38331C17.3004 3.56603 17.3181 2.65747 16.9465 2.12459C16.6223 1.65963 16.1166 1.35374 15.5541 1.28353C14.9093 1.20305 14.1122 1.64208 12.5196 2.52069L4.02686 7.2061C2.43428 8.08471 1.63812 8.52423 1.36231 9.11263C1.12174 9.62586 1.11023 10.2174 1.33065 10.7396C1.58326 11.338 2.36173 11.8079 3.91763 12.747L12.2231 17.7601Z" stroke="black" stroke-opacity="0.3" stroke-width="2" stroke-linecap="round" stroke-linejoin="round"/>
</svg>
